<?xml version="1.0" encoding="UTF-8" standalone="no"?>
<!DOCTYPE svg PUBLIC "-//W3C//DTD SVG 1.1//EN"
 "http://www.w3.org/Graphics/SVG/1.1/DTD/svg11.dtd">
<!-- Generated by graphviz version 2.43.0 (0)
 -->
<!-- Title: %3 Pages: 1 -->
<svg width="332pt" height="335pt"
 viewBox="0.00 0.00 332.00 335.00" xmlns="http://www.w3.org/2000/svg" xmlns:xlink="http://www.w3.org/1999/xlink">
<g id="graph0" class="graph" transform="scale(1 1) rotate(0) translate(4 331)">
<title>%3</title>
<polygon fill="white" stroke="transparent" points="-4,4 -4,-331 328,-331 328,4 -4,4"/>
<!-- 132071005796080 -->
<g id="node1" class="node">
<title>132071005796080</title>
<polygon fill="#caff70" stroke="black" points="243.5,-30 189.5,-30 189.5,0 243.5,0 243.5,-30"/>
<text text-anchor="middle" x="216.5" y="-18" font-family="monospace" font-size="10.00">z</text>
<text text-anchor="middle" x="216.5" y="-7" font-family="monospace" font-size="10.00"> ()</text>
</g>
<!-- 132071011386176 -->
<g id="node2" class="node">
<title>132071011386176</title>
<polygon fill="lightgrey" stroke="black" points="264,-85 169,-85 169,-66 264,-66 264,-85"/>
<text text-anchor="middle" x="216.5" y="-73" font-family="monospace" font-size="10.00">MeanBackward0</text>
</g>
<!-- 132071011386176&#45;&gt;132071005796080 -->
<g id="edge9" class="edge">
<title>132071011386176&#45;&gt;132071005796080</title>
<path fill="none" stroke="black" d="M216.5,-65.87C216.5,-59.11 216.5,-49.35 216.5,-40.26"/>
<polygon fill="black" stroke="black" points="220,-40.11 216.5,-30.11 213,-40.11 220,-40.11"/>
</g>
<!-- 132071011389104 -->
<g id="node3" class="node">
<title>132071011389104</title>
<polygon fill="lightgrey" stroke="black" points="261,-140 172,-140 172,-121 261,-121 261,-140"/>
<text text-anchor="middle" x="216.5" y="-128" font-family="monospace" font-size="10.00">AddBackward0</text>
</g>
<!-- 132071011389104&#45;&gt;132071011386176 -->
<g id="edge1" class="edge">
<title>132071011389104&#45;&gt;132071011386176</title>
<path fill="none" stroke="black" d="M216.5,-120.75C216.5,-113.8 216.5,-103.85 216.5,-95.13"/>
<polygon fill="black" stroke="black" points="220,-95.09 216.5,-85.09 213,-95.09 220,-95.09"/>
</g>
<!-- 132071011624528 -->
<g id="node4" class="node">
<title>132071011624528</title>
<polygon fill="lightgrey" stroke="black" points="205,-195 116,-195 116,-176 205,-176 205,-195"/>
<text text-anchor="middle" x="160.5" y="-183" font-family="monospace" font-size="10.00">MulBackward0</text>
</g>
<!-- 132071011624528&#45;&gt;132071011389104 -->
<g id="edge2" class="edge">
<title>132071011624528&#45;&gt;132071011389104</title>
<path fill="none" stroke="black" d="M169.5,-175.98C177.69,-168.23 190.01,-156.58 199.97,-147.14"/>
<polygon fill="black" stroke="black" points="202.48,-149.59 207.34,-140.17 197.67,-144.5 202.48,-149.59"/>
</g>
<!-- 132071011629904 -->
<g id="node5" class="node">
<title>132071011629904</title>
<polygon fill="lightgrey" stroke="black" points="101,-255.5 0,-255.5 0,-236.5 101,-236.5 101,-255.5"/>
<text text-anchor="middle" x="50.5" y="-243.5" font-family="monospace" font-size="10.00">AccumulateGrad</text>
</g>
<!-- 132071011629904&#45;&gt;132071011624528 -->
<g id="edge3" class="edge">
<title>132071011629904&#45;&gt;132071011624528</title>
<path fill="none" stroke="black" d="M66.73,-236.37C84.77,-226.78 114.12,-211.17 135.18,-199.97"/>
<polygon fill="black" stroke="black" points="137.02,-202.95 144.2,-195.17 133.73,-196.77 137.02,-202.95"/>
</g>
<!-- 132071053664768 -->
<g id="node6" class="node">
<title>132071053664768</title>
<polygon fill="lightblue" stroke="black" points="77.5,-327 23.5,-327 23.5,-297 77.5,-297 77.5,-327"/>
<text text-anchor="middle" x="50.5" y="-315" font-family="monospace" font-size="10.00">x</text>
<text text-anchor="middle" x="50.5" y="-304" font-family="monospace" font-size="10.00"> (2)</text>
</g>
<!-- 132071053664768&#45;&gt;132071011629904 -->
<g id="edge4" class="edge">
<title>132071053664768&#45;&gt;132071011629904</title>
<path fill="none" stroke="black" d="M50.5,-296.8C50.5,-287.7 50.5,-275.79 50.5,-265.9"/>
<polygon fill="black" stroke="black" points="54,-265.84 50.5,-255.84 47,-265.84 54,-265.84"/>
</g>
<!-- 132071011625344 -->
<g id="node7" class="node">
<title>132071011625344</title>
<polygon fill="lightgrey" stroke="black" points="220,-255.5 119,-255.5 119,-236.5 220,-236.5 220,-255.5"/>
<text text-anchor="middle" x="169.5" y="-243.5" font-family="monospace" font-size="10.00">AccumulateGrad</text>
</g>
<!-- 132071011625344&#45;&gt;132071011624528 -->
<g id="edge5" class="edge">
<title>132071011625344&#45;&gt;132071011624528</title>
<path fill="none" stroke="black" d="M168.17,-236.37C166.91,-228.16 164.97,-215.54 163.35,-205.05"/>
<polygon fill="black" stroke="black" points="166.81,-204.52 161.83,-195.17 159.89,-205.58 166.81,-204.52"/>
</g>
<!-- 132071008008640 -->
<g id="node8" class="node">
<title>132071008008640</title>
<polygon fill="lightblue" stroke="black" points="196.5,-327 142.5,-327 142.5,-297 196.5,-297 196.5,-327"/>
<text text-anchor="middle" x="169.5" y="-315" font-family="monospace" font-size="10.00">y</text>
<text text-anchor="middle" x="169.5" y="-304" font-family="monospace" font-size="10.00"> (2)</text>
</g>
<!-- 132071008008640&#45;&gt;132071011625344 -->
<g id="edge6" class="edge">
<title>132071008008640&#45;&gt;132071011625344</title>
<path fill="none" stroke="black" d="M169.5,-296.8C169.5,-287.7 169.5,-275.79 169.5,-265.9"/>
<polygon fill="black" stroke="black" points="173,-265.84 169.5,-255.84 166,-265.84 173,-265.84"/>
</g>
<!-- 132071011630624 -->
<g id="node9" class="node">
<title>132071011630624</title>
<polygon fill="lightgrey" stroke="black" points="324,-195 223,-195 223,-176 324,-176 324,-195"/>
<text text-anchor="middle" x="273.5" y="-183" font-family="monospace" font-size="10.00">AccumulateGrad</text>
</g>
<!-- 132071011630624&#45;&gt;132071011389104 -->
<g id="edge7" class="edge">
<title>132071011630624&#45;&gt;132071011389104</title>
<path fill="none" stroke="black" d="M264.34,-175.98C256,-168.23 243.47,-156.58 233.32,-147.14"/>
<polygon fill="black" stroke="black" points="235.53,-144.42 225.82,-140.17 230.76,-149.54 235.53,-144.42"/>
</g>
<!-- 132071008173760 -->
<g id="node10" class="node">
<title>132071008173760</title>
<polygon fill="lightblue" stroke="black" points="300.5,-261 246.5,-261 246.5,-231 300.5,-231 300.5,-261"/>
<text text-anchor="middle" x="273.5" y="-249" font-family="monospace" font-size="10.00">c</text>
<text text-anchor="middle" x="273.5" y="-238" font-family="monospace" font-size="10.00"> (2)</text>
</g>
<!-- 132071008173760&#45;&gt;132071011630624 -->
<g id="edge8" class="edge">
<title>132071008173760&#45;&gt;132071011630624</title>
<path fill="none" stroke="black" d="M273.5,-230.84C273.5,-223.21 273.5,-213.7 273.5,-205.45"/>
<polygon fill="black" stroke="black" points="277,-205.27 273.5,-195.27 270,-205.27 277,-205.27"/>
</g>
</g>
</svg>