<?xml version="1.0" encoding="UTF-8" standalone="no"?>
<!DOCTYPE svg PUBLIC "-//W3C//DTD SVG 1.1//EN"
 "http://www.w3.org/Graphics/SVG/1.1/DTD/svg11.dtd">
<!-- Generated by graphviz version 2.43.0 (0)
 -->
<!-- Title: %3 Pages: 1 -->
<svg width="338pt" height="636pt"
 viewBox="0.00 0.00 338.00 636.00" xmlns="http://www.w3.org/2000/svg" xmlns:xlink="http://www.w3.org/1999/xlink">
<g id="graph0" class="graph" transform="scale(1 1) rotate(0) translate(4 632)">
<title>%3</title>
<polygon fill="white" stroke="transparent" points="-4,4 -4,-632 334,-632 334,4 -4,4"/>
<!-- 133103271753536 -->
<g id="node1" class="node">
<title>133103271753536</title>
<polygon fill="#caff70" stroke="black" points="196,-30 137,-30 137,0 196,0 196,-30"/>
<text text-anchor="middle" x="166.5" y="-18" font-family="monospace" font-size="10.00">outputs</text>
<text text-anchor="middle" x="166.5" y="-7" font-family="monospace" font-size="10.00"> (1)</text>
</g>
<!-- 133103271579744 -->
<g id="node2" class="node">
<title>133103271579744</title>
<polygon fill="lightgrey" stroke="black" points="223,-85 110,-85 110,-66 223,-66 223,-85"/>
<text text-anchor="middle" x="166.5" y="-73" font-family="monospace" font-size="10.00">SigmoidBackward0</text>
</g>
<!-- 133103271579744&#45;&gt;133103271753536 -->
<g id="edge17" class="edge">
<title>133103271579744&#45;&gt;133103271753536</title>
<path fill="none" stroke="black" d="M166.5,-65.87C166.5,-59.11 166.5,-49.35 166.5,-40.26"/>
<polygon fill="black" stroke="black" points="170,-40.11 166.5,-30.11 163,-40.11 170,-40.11"/>
</g>
<!-- 133103271580752 -->
<g id="node3" class="node">
<title>133103271580752</title>
<polygon fill="lightgrey" stroke="black" points="214,-140 119,-140 119,-121 214,-121 214,-140"/>
<text text-anchor="middle" x="166.5" y="-128" font-family="monospace" font-size="10.00">ViewBackward0</text>
</g>
<!-- 133103271580752&#45;&gt;133103271579744 -->
<g id="edge1" class="edge">
<title>133103271580752&#45;&gt;133103271579744</title>
<path fill="none" stroke="black" d="M166.5,-120.75C166.5,-113.8 166.5,-103.85 166.5,-95.13"/>
<polygon fill="black" stroke="black" points="170,-95.09 166.5,-85.09 163,-95.09 170,-95.09"/>
</g>
<!-- 133103271579504 -->
<g id="node4" class="node">
<title>133103271579504</title>
<polygon fill="lightgrey" stroke="black" points="217,-195 116,-195 116,-176 217,-176 217,-195"/>
<text text-anchor="middle" x="166.5" y="-183" font-family="monospace" font-size="10.00">AddmmBackward0</text>
</g>
<!-- 133103271579504&#45;&gt;133103271580752 -->
<g id="edge2" class="edge">
<title>133103271579504&#45;&gt;133103271580752</title>
<path fill="none" stroke="black" d="M166.5,-175.75C166.5,-168.8 166.5,-158.85 166.5,-150.13"/>
<polygon fill="black" stroke="black" points="170,-150.09 166.5,-140.09 163,-150.09 170,-150.09"/>
</g>
<!-- 133103271579600 -->
<g id="node5" class="node">
<title>133103271579600</title>
<polygon fill="lightgrey" stroke="black" points="101,-250 0,-250 0,-231 101,-231 101,-250"/>
<text text-anchor="middle" x="50.5" y="-238" font-family="monospace" font-size="10.00">AccumulateGrad</text>
</g>
<!-- 133103271579600&#45;&gt;133103271579504 -->
<g id="edge3" class="edge">
<title>133103271579600&#45;&gt;133103271579504</title>
<path fill="none" stroke="black" d="M69.14,-230.98C87.8,-222.46 116.75,-209.23 138.24,-199.41"/>
<polygon fill="black" stroke="black" points="139.88,-202.51 147.52,-195.17 136.97,-196.14 139.88,-202.51"/>
</g>
<!-- 133103271746576 -->
<g id="node6" class="node">
<title>133103271746576</title>
<polygon fill="lightblue" stroke="black" points="77.5,-317 23.5,-317 23.5,-286 77.5,-286 77.5,-317"/>
<text text-anchor="middle" x="50.5" y="-293" font-family="monospace" font-size="10.00"> (1)</text>
</g>
<!-- 133103271746576&#45;&gt;133103271579600 -->
<g id="edge4" class="edge">
<title>133103271746576&#45;&gt;133103271579600</title>
<path fill="none" stroke="black" d="M50.5,-285.92C50.5,-278.22 50.5,-268.69 50.5,-260.43"/>
<polygon fill="black" stroke="black" points="54,-260.25 50.5,-250.25 47,-260.25 54,-260.25"/>
</g>
<!-- 133103271579648 -->
<g id="node7" class="node">
<title>133103271579648</title>
<polygon fill="lightgrey" stroke="black" points="214,-250 119,-250 119,-231 214,-231 214,-250"/>
<text text-anchor="middle" x="166.5" y="-238" font-family="monospace" font-size="10.00">ViewBackward0</text>
</g>
<!-- 133103271579648&#45;&gt;133103271579504 -->
<g id="edge5" class="edge">
<title>133103271579648&#45;&gt;133103271579504</title>
<path fill="none" stroke="black" d="M166.5,-230.75C166.5,-223.8 166.5,-213.85 166.5,-205.13"/>
<polygon fill="black" stroke="black" points="170,-205.09 166.5,-195.09 163,-205.09 170,-205.09"/>
</g>
<!-- 133103271580032 -->
<g id="node8" class="node">
<title>133103271580032</title>
<polygon fill="lightgrey" stroke="black" points="211,-311 116,-311 116,-292 211,-292 211,-311"/>
<text text-anchor="middle" x="163.5" y="-299" font-family="monospace" font-size="10.00">ReluBackward0</text>
</g>
<!-- 133103271580032&#45;&gt;133103271579648 -->
<g id="edge6" class="edge">
<title>133103271580032&#45;&gt;133103271579648</title>
<path fill="none" stroke="black" d="M163.94,-291.79C164.36,-283.6 165,-271.06 165.53,-260.55"/>
<polygon fill="black" stroke="black" points="169.04,-260.41 166.06,-250.24 162.05,-260.05 169.04,-260.41"/>
</g>
<!-- 133103271580224 -->
<g id="node9" class="node">
<title>133103271580224</title>
<polygon fill="lightgrey" stroke="black" points="211,-378 116,-378 116,-359 211,-359 211,-378"/>
<text text-anchor="middle" x="163.5" y="-366" font-family="monospace" font-size="10.00">ViewBackward0</text>
</g>
<!-- 133103271580224&#45;&gt;133103271580032 -->
<g id="edge7" class="edge">
<title>133103271580224&#45;&gt;133103271580032</title>
<path fill="none" stroke="black" d="M163.5,-358.73C163.5,-349.18 163.5,-333.62 163.5,-321.28"/>
<polygon fill="black" stroke="black" points="167,-321.13 163.5,-311.13 160,-321.13 167,-321.13"/>
</g>
<!-- 133103271580416 -->
<g id="node10" class="node">
<title>133103271580416</title>
<polygon fill="lightgrey" stroke="black" points="214,-439 113,-439 113,-420 214,-420 214,-439"/>
<text text-anchor="middle" x="163.5" y="-427" font-family="monospace" font-size="10.00">AddmmBackward0</text>
</g>
<!-- 133103271580416&#45;&gt;133103271580224 -->
<g id="edge8" class="edge">
<title>133103271580416&#45;&gt;133103271580224</title>
<path fill="none" stroke="black" d="M163.5,-419.79C163.5,-411.6 163.5,-399.06 163.5,-388.55"/>
<polygon fill="black" stroke="black" points="167,-388.24 163.5,-378.24 160,-388.24 167,-388.24"/>
</g>
<!-- 133103271580464 -->
<g id="node11" class="node">
<title>133103271580464</title>
<polygon fill="lightgrey" stroke="black" points="161,-494 60,-494 60,-475 161,-475 161,-494"/>
<text text-anchor="middle" x="110.5" y="-482" font-family="monospace" font-size="10.00">AccumulateGrad</text>
</g>
<!-- 133103271580464&#45;&gt;133103271580416 -->
<g id="edge9" class="edge">
<title>133103271580464&#45;&gt;133103271580416</title>
<path fill="none" stroke="black" d="M119.25,-474.75C126.97,-467.03 138.4,-455.6 147.72,-446.28"/>
<polygon fill="black" stroke="black" points="150.31,-448.64 154.91,-439.09 145.36,-443.69 150.31,-448.64"/>
</g>
<!-- 133103273346128 -->
<g id="node12" class="node">
<title>133103273346128</title>
<polygon fill="lightblue" stroke="black" points="137.5,-561 83.5,-561 83.5,-530 137.5,-530 137.5,-561"/>
<text text-anchor="middle" x="110.5" y="-537" font-family="monospace" font-size="10.00"> (3)</text>
</g>
<!-- 133103273346128&#45;&gt;133103271580464 -->
<g id="edge10" class="edge">
<title>133103273346128&#45;&gt;133103271580464</title>
<path fill="none" stroke="black" d="M110.5,-529.92C110.5,-522.22 110.5,-512.69 110.5,-504.43"/>
<polygon fill="black" stroke="black" points="114,-504.25 110.5,-494.25 107,-504.25 114,-504.25"/>
</g>
<!-- 133103271580560 -->
<g id="node13" class="node">
<title>133103271580560</title>
<polygon fill="lightgrey" stroke="black" points="256,-494 179,-494 179,-475 256,-475 256,-494"/>
<text text-anchor="middle" x="217.5" y="-482" font-family="monospace" font-size="10.00">TBackward0</text>
</g>
<!-- 133103271580560&#45;&gt;133103271580416 -->
<g id="edge11" class="edge">
<title>133103271580560&#45;&gt;133103271580416</title>
<path fill="none" stroke="black" d="M208.58,-474.75C200.72,-467.03 189.07,-455.6 179.58,-446.28"/>
<polygon fill="black" stroke="black" points="181.84,-443.6 172.25,-439.09 176.94,-448.59 181.84,-443.6"/>
</g>
<!-- 133103271580512 -->
<g id="node14" class="node">
<title>133103271580512</title>
<polygon fill="lightgrey" stroke="black" points="268,-555 167,-555 167,-536 268,-536 268,-555"/>
<text text-anchor="middle" x="217.5" y="-543" font-family="monospace" font-size="10.00">AccumulateGrad</text>
</g>
<!-- 133103271580512&#45;&gt;133103271580560 -->
<g id="edge12" class="edge">
<title>133103271580512&#45;&gt;133103271580560</title>
<path fill="none" stroke="black" d="M217.5,-535.79C217.5,-527.6 217.5,-515.06 217.5,-504.55"/>
<polygon fill="black" stroke="black" points="221,-504.24 217.5,-494.24 214,-504.24 221,-504.24"/>
</g>
<!-- 133103292387376 -->
<g id="node15" class="node">
<title>133103292387376</title>
<polygon fill="lightblue" stroke="black" points="247,-628 188,-628 188,-597 247,-597 247,-628"/>
<text text-anchor="middle" x="217.5" y="-604" font-family="monospace" font-size="10.00"> (3, 1)</text>
</g>
<!-- 133103292387376&#45;&gt;133103271580512 -->
<g id="edge13" class="edge">
<title>133103292387376&#45;&gt;133103271580512</title>
<path fill="none" stroke="black" d="M217.5,-596.75C217.5,-587.39 217.5,-575.19 217.5,-565.16"/>
<polygon fill="black" stroke="black" points="221,-565.02 217.5,-555.02 214,-565.02 221,-565.02"/>
</g>
<!-- 133103271580704 -->
<g id="node16" class="node">
<title>133103271580704</title>
<polygon fill="lightgrey" stroke="black" points="315,-250 238,-250 238,-231 315,-231 315,-250"/>
<text text-anchor="middle" x="276.5" y="-238" font-family="monospace" font-size="10.00">TBackward0</text>
</g>
<!-- 133103271580704&#45;&gt;133103271579504 -->
<g id="edge14" class="edge">
<title>133103271580704&#45;&gt;133103271579504</title>
<path fill="none" stroke="black" d="M258.83,-230.98C241.21,-222.5 213.92,-209.35 193.57,-199.54"/>
<polygon fill="black" stroke="black" points="195.02,-196.36 184.49,-195.17 191.98,-202.66 195.02,-196.36"/>
</g>
<!-- 133103271580320 -->
<g id="node17" class="node">
<title>133103271580320</title>
<polygon fill="lightgrey" stroke="black" points="330,-311 229,-311 229,-292 330,-292 330,-311"/>
<text text-anchor="middle" x="279.5" y="-299" font-family="monospace" font-size="10.00">AccumulateGrad</text>
</g>
<!-- 133103271580320&#45;&gt;133103271580704 -->
<g id="edge15" class="edge">
<title>133103271580320&#45;&gt;133103271580704</title>
<path fill="none" stroke="black" d="M279.06,-291.79C278.64,-283.6 278,-271.06 277.47,-260.55"/>
<polygon fill="black" stroke="black" points="280.95,-260.05 276.94,-250.24 273.96,-260.41 280.95,-260.05"/>
</g>
<!-- 133103271748176 -->
<g id="node18" class="node">
<title>133103271748176</title>
<polygon fill="lightblue" stroke="black" points="309,-384 250,-384 250,-353 309,-353 309,-384"/>
<text text-anchor="middle" x="279.5" y="-360" font-family="monospace" font-size="10.00"> (1, 3)</text>
</g>
<!-- 133103271748176&#45;&gt;133103271580320 -->
<g id="edge16" class="edge">
<title>133103271748176&#45;&gt;133103271580320</title>
<path fill="none" stroke="black" d="M279.5,-352.75C279.5,-343.39 279.5,-331.19 279.5,-321.16"/>
<polygon fill="black" stroke="black" points="283,-321.02 279.5,-311.02 276,-321.02 283,-321.02"/>
</g>
</g>
</svg>