<?xml version="1.0" encoding="UTF-8" standalone="no"?>
<!DOCTYPE svg PUBLIC "-//W3C//DTD SVG 1.1//EN"
 "http://www.w3.org/Graphics/SVG/1.1/DTD/svg11.dtd">
<!-- Generated by graphviz version 2.43.0 (0)
 -->
<!-- Title: %3 Pages: 1 -->
<svg width="228pt" height="270pt"
 viewBox="0.00 0.00 228.00 270.00" xmlns="http://www.w3.org/2000/svg" xmlns:xlink="http://www.w3.org/1999/xlink">
<g id="graph0" class="graph" transform="scale(1 1) rotate(0) translate(4 266)">
<title>%3</title>
<polygon fill="white" stroke="transparent" points="-4,4 -4,-266 224,-266 224,4 -4,4"/>
<!-- 133103253886496 -->
<g id="node1" class="node">
<title>133103253886496</title>
<polygon fill="#caff70" stroke="black" points="151,-31 68,-31 68,0 151,0 151,-31"/>
<text text-anchor="middle" x="109.5" y="-7" font-family="monospace" font-size="10.00"> (100, 100)</text>
</g>
<!-- 133103284395920 -->
<g id="node2" class="node">
<title>133103284395920</title>
<polygon fill="lightgrey" stroke="black" points="154,-86 65,-86 65,-67 154,-67 154,-86"/>
<text text-anchor="middle" x="109.5" y="-74" font-family="monospace" font-size="10.00">SinBackward0</text>
</g>
<!-- 133103284395920&#45;&gt;133103253886496 -->
<g id="edge6" class="edge">
<title>133103284395920&#45;&gt;133103253886496</title>
<path fill="none" stroke="black" d="M109.5,-66.79C109.5,-60.07 109.5,-50.4 109.5,-41.34"/>
<polygon fill="black" stroke="black" points="113,-41.19 109.5,-31.19 106,-41.19 113,-41.19"/>
</g>
<!-- 133103284403744 -->
<g id="node3" class="node">
<title>133103284403744</title>
<polygon fill="lightgrey" stroke="black" points="154,-141 65,-141 65,-122 154,-122 154,-141"/>
<text text-anchor="middle" x="109.5" y="-129" font-family="monospace" font-size="10.00">AddBackward0</text>
</g>
<!-- 133103284403744&#45;&gt;133103284395920 -->
<g id="edge1" class="edge">
<title>133103284403744&#45;&gt;133103284395920</title>
<path fill="none" stroke="black" d="M109.5,-121.75C109.5,-114.8 109.5,-104.85 109.5,-96.13"/>
<polygon fill="black" stroke="black" points="113,-96.09 109.5,-86.09 106,-96.09 113,-96.09"/>
</g>
<!-- 133103284402928 -->
<g id="node4" class="node">
<title>133103284402928</title>
<polygon fill="lightgrey" stroke="black" points="101,-196 0,-196 0,-177 101,-177 101,-196"/>
<text text-anchor="middle" x="50.5" y="-184" font-family="monospace" font-size="10.00">AccumulateGrad</text>
</g>
<!-- 133103284402928&#45;&gt;133103284403744 -->
<g id="edge2" class="edge">
<title>133103284402928&#45;&gt;133103284403744</title>
<path fill="none" stroke="black" d="M59.98,-176.98C68.7,-169.15 81.84,-157.34 92.4,-147.86"/>
<polygon fill="black" stroke="black" points="94.75,-150.46 99.85,-141.17 90.07,-145.25 94.75,-150.46"/>
</g>
<!-- 133101390489024 -->
<g id="node5" class="node">
<title>133101390489024</title>
<polygon fill="lightblue" stroke="black" points="92,-262 9,-262 9,-232 92,-232 92,-262"/>
<text text-anchor="middle" x="50.5" y="-250" font-family="monospace" font-size="10.00">X</text>
<text text-anchor="middle" x="50.5" y="-239" font-family="monospace" font-size="10.00"> (100, 100)</text>
</g>
<!-- 133101390489024&#45;&gt;133103284402928 -->
<g id="edge3" class="edge">
<title>133101390489024&#45;&gt;133103284402928</title>
<path fill="none" stroke="black" d="M50.5,-231.84C50.5,-224.21 50.5,-214.7 50.5,-206.45"/>
<polygon fill="black" stroke="black" points="54,-206.27 50.5,-196.27 47,-206.27 54,-206.27"/>
</g>
<!-- 133103284392656 -->
<g id="node6" class="node">
<title>133103284392656</title>
<polygon fill="lightgrey" stroke="black" points="220,-196 119,-196 119,-177 220,-177 220,-196"/>
<text text-anchor="middle" x="169.5" y="-184" font-family="monospace" font-size="10.00">AccumulateGrad</text>
</g>
<!-- 133103284392656&#45;&gt;133103284403744 -->
<g id="edge4" class="edge">
<title>133103284392656&#45;&gt;133103284403744</title>
<path fill="none" stroke="black" d="M159.86,-176.98C150.99,-169.15 137.63,-157.34 126.89,-147.86"/>
<polygon fill="black" stroke="black" points="129.13,-145.17 119.32,-141.17 124.49,-150.41 129.13,-145.17"/>
</g>
<!-- 133100708007744 -->
<g id="node7" class="node">
<title>133100708007744</title>
<polygon fill="lightblue" stroke="black" points="211,-262 128,-262 128,-232 211,-232 211,-262"/>
<text text-anchor="middle" x="169.5" y="-250" font-family="monospace" font-size="10.00">Y</text>
<text text-anchor="middle" x="169.5" y="-239" font-family="monospace" font-size="10.00"> (100, 100)</text>
</g>
<!-- 133100708007744&#45;&gt;133103284392656 -->
<g id="edge5" class="edge">
<title>133100708007744&#45;&gt;133103284392656</title>
<path fill="none" stroke="black" d="M169.5,-231.84C169.5,-224.21 169.5,-214.7 169.5,-206.45"/>
<polygon fill="black" stroke="black" points="173,-206.27 169.5,-196.27 166,-206.27 173,-206.27"/>
</g>
</g>
</svg>